<?xml version="1.0" encoding="utf-8"?>
<!-- Svg Vector Icons : http://www.onlinewebfonts.com/icon -->
<!DOCTYPE svg PUBLIC "-//W3C//DTD SVG 1.1//EN" "http://www.w3.org/Graphics/SVG/1.1/DTD/svg11.dtd">
<svg version="1.1" xmlns="http://www.w3.org/2000/svg" xmlns:xlink="http://www.w3.org/1999/xlink" x="0px" y="0px" viewBox="0 0 256 256" enable-background="new 0 0 256 256" xml:space="preserve">
<metadata> Svg Vector Icons : http://www.onlinewebfonts.com/icon </metadata>
<g><g><g><path fill="#000000" d="M234.4,8.4h-23.2c-6.4,0-11.6,5.2-11.6,11.6v216.1c0,6.4,5.2,11.6,11.6,11.6h23.2c6.4,0,11.6-5.2,11.6-11.6V19.9C246,13.6,240.8,8.4,234.4,8.4z"/><path fill="#000000" d="M22,156.4h48.2c6.6,0,12,5.4,12,12V189c0,10,11.6,15.6,19.5,9.5l77.2-60c6.2-4.8,6.2-14.3,0-19.1l-77.2-61.8c-7.9-6.2-19.5-0.6-19.5,9.7v20.6c0,6.6-5.4,12-12,12H22c-6.5,0-12,5.4-12,12v32.4C9.8,151,15.2,156.4,22,156.4z"/></g><g></g><g></g><g></g><g></g><g></g><g></g><g></g><g></g><g></g><g></g><g></g><g></g><g></g><g></g><g></g></g></g>
</svg>