<svg xmlns="http://www.w3.org/2000/svg" width="512" height="455" viewBox="0 0 512 455" version="1.1"><path d="" stroke="none" fill="#080404" fill-rule="evenodd"/><path d="M 16.419 2.380 C 10.409 5.185, 4.847 10.619, 2.030 16.438 C 0.013 20.604, 0 21.802, -0 199.167 L -0 377.702 2.532 382.601 C 5.874 389.067, 11.899 394.444, 18.620 396.959 C 23.270 398.699, 26.417 399, 39.955 399 L 55.835 399 56.167 416.250 C 56.490 432.964, 56.590 433.677, 59.384 439.191 C 62.783 445.901, 65.739 448.903, 72.399 452.416 L 77.298 455 284.333 455 L 491.369 455 495.857 452.827 C 501.702 449.998, 507.058 444.566, 510.061 438.423 L 512.467 433.500 512.553 226.500 C 512.601 112.650, 512.489 32.538, 512.304 48.472 L 511.969 77.445 509.810 73.081 C 506.980 67.360, 502.156 62.637, 495.717 59.282 C 490.741 56.690, 489.702 56.546, 473.250 56.183 L 456 55.802 455.994 40.651 C 455.991 32.318, 455.490 23.700, 454.880 21.500 C 453.108 15.110, 447.436 7.488, 441.724 3.823 L 436.546 0.500 229.023 0.255 L 21.500 0.009 16.419 2.380 M 0.489 199 C 0.489 297.725, 0.607 338.113, 0.750 288.750 C 0.893 239.388, 0.893 158.613, 0.750 109.250 C 0.607 59.888, 0.489 100.275, 0.489 199 M 29 199 L 29 369 42.487 369 L 55.974 369 56.237 223.750 L 56.500 78.500 58.606 73.949 C 61.676 67.314, 66.232 62.617, 72.751 59.366 L 78.500 56.500 252.250 56.239 L 426 55.978 426 42.489 L 426 29 227.500 29 L 29 29 29 199 M 86 256 L 86 426 284.500 426 L 483 426 483 256 L 483 86 284.500 86 L 86 86 86 256 M 374.133 114.594 C 361.439 117.372, 350.614 126.261, 344.685 138.777 C 341.703 145.072, 341.500 146.203, 341.500 156.552 C 341.500 167.320, 341.597 167.800, 345.274 175.240 C 358.203 201.401, 391.416 207.794, 412.986 188.275 C 417.344 184.331, 419.970 180.817, 422.726 175.240 C 426.403 167.800, 426.500 167.320, 426.500 156.552 C 426.500 146.203, 426.297 145.072, 423.315 138.777 C 417.220 125.911, 406.559 117.352, 393.099 114.521 C 384.600 112.733, 382.603 112.741, 374.133 114.594 M 210.913 173.736 C 208.222 178.424, 181.034 225.031, 176.050 233.500 C 164.830 252.566, 144.340 287.637, 140.994 293.500 C 140.053 295.150, 133.363 306.625, 126.127 319 L 112.972 341.500 113.236 370 L 113.500 398.500 284.500 398.500 L 455.500 398.500 455.756 313.556 C 455.896 266.836, 455.671 228.302, 455.256 227.924 C 454.840 227.545, 436.725 242.525, 415 261.212 C 393.275 279.899, 371.027 298.971, 365.561 303.594 L 355.622 312 341.403 312 L 327.184 312 270.987 241.750 C 240.079 203.113, 214.276 171.381, 213.646 171.236 C 213.015 171.092, 211.786 172.217, 210.913 173.736" stroke="none" fill="#040404" fill-rule="evenodd"/></svg>