<svg xmlns="http://www.w3.org/2000/svg" width="225" height="225" viewBox="0 0 225 225" version="1.1"><path d="M 0.015 1.750 C 0.024 2.749, 0.351 3.071, 0.777 2.500 C 1.187 1.950, 1.931 1.163, 2.428 0.750 C 2.926 0.337, 2.583 0, 1.667 0 C 0.740 0, 0.007 0.777, 0.015 1.750 M 63.800 1.200 C 64.713 2.113, 65 21.133, 65 80.700 L 65 159 142.250 159.006 C 207.397 159.011, 219.931 159.237, 222.250 160.447 L 225 161.881 225 80.941 L 225 0 143.800 0 C 80.644 0, 62.867 0.267, 63.800 1.200 M 70 4.500 C 70 5.325, 70.675 6, 71.500 6 C 72.325 6, 73 5.325, 73 4.500 C 73 3.675, 72.325 3, 71.500 3 C 70.675 3, 70 3.675, 70 4.500 M 78 5.500 C 78 6.325, 78.675 7, 79.500 7 C 80.325 7, 81 6.325, 81 5.500 C 81 4.675, 80.325 4, 79.500 4 C 78.675 4, 78 4.675, 78 5.500 M 86.694 4.639 C 85.761 5.573, 86.888 7, 88.559 7 C 89.352 7, 90 6.325, 90 5.500 C 90 3.994, 87.889 3.444, 86.694 4.639 M 94 5.500 C 94 6.325, 94.885 7, 95.969 7 C 97.308 7, 97.753 6.520, 97.362 5.500 C 97.045 4.675, 96.159 4, 95.393 4 C 94.627 4, 94 4.675, 94 5.500 M 102.496 5.007 C 102.153 5.561, 102.596 6.292, 103.480 6.631 C 105.394 7.365, 106.461 6.556, 105.541 5.067 C 104.711 3.723, 103.306 3.696, 102.496 5.007 M 111 5.500 C 111 6.325, 111.675 7, 112.500 7 C 113.325 7, 114 6.325, 114 5.500 C 114 4.675, 113.325 4, 112.500 4 C 111.675 4, 111 4.675, 111 5.500 M 119.459 5.067 C 118.539 6.556, 119.606 7.365, 121.520 6.631 C 122.404 6.292, 122.847 5.561, 122.504 5.007 C 121.694 3.696, 120.289 3.723, 119.459 5.067 M 127 5.500 C 127 6.325, 127.675 7, 128.500 7 C 129.325 7, 130 6.325, 130 5.500 C 130 4.675, 129.325 4, 128.500 4 C 127.675 4, 127 4.675, 127 5.500 M 135.459 5.067 C 134.539 6.556, 135.606 7.365, 137.520 6.631 C 138.404 6.292, 138.847 5.561, 138.504 5.007 C 137.694 3.696, 136.289 3.723, 135.459 5.067 M 144 5.500 C 144 6.325, 144.675 7, 145.500 7 C 146.325 7, 147 6.325, 147 5.500 C 147 4.675, 146.325 4, 145.500 4 C 144.675 4, 144 4.675, 144 5.500 M 152 5.500 C 152 6.325, 152.675 7, 153.500 7 C 154.325 7, 155 6.325, 155 5.500 C 155 4.675, 154.325 4, 153.500 4 C 152.675 4, 152 4.675, 152 5.500 M 160 5.417 C 160 6.287, 160.713 7, 161.583 7 C 163.349 7, 163.042 4.847, 161.188 4.229 C 160.534 4.011, 160 4.546, 160 5.417 M 168 5.500 C 168 6.325, 168.675 7, 169.500 7 C 170.325 7, 171 6.325, 171 5.500 C 171 4.675, 170.325 4, 169.500 4 C 168.675 4, 168 4.675, 168 5.500 M 176.496 6.007 C 176.153 6.561, 176.596 7.292, 177.480 7.631 C 179.394 8.365, 180.461 7.556, 179.541 6.067 C 178.711 4.723, 177.306 4.696, 176.496 6.007 M 185 6.500 C 185 7.325, 185.675 8, 186.500 8 C 187.325 8, 188 7.325, 188 6.500 C 188 5.675, 187.325 5, 186.500 5 C 185.675 5, 185 5.675, 185 6.500 M 192.543 5.931 C 191.803 7.128, 193.684 8.313, 195.016 7.490 C 196.135 6.799, 195.400 5, 194 5 C 193.515 5, 192.859 5.419, 192.543 5.931 M 201 6.500 C 201 7.325, 201.675 8, 202.500 8 C 203.325 8, 204 7.325, 204 6.500 C 204 5.675, 203.325 5, 202.500 5 C 201.675 5, 201 5.675, 201 6.500 M 208.496 6.007 C 208.153 6.561, 208.596 7.292, 209.480 7.631 C 211.394 8.365, 212.461 7.556, 211.541 6.067 C 210.711 4.723, 209.306 4.696, 208.496 6.007 M 217 6.500 C 217 7.325, 217.675 8, 218.500 8 C 219.325 8, 220 7.325, 220 6.500 C 220 5.675, 219.325 5, 218.500 5 C 217.675 5, 217 5.675, 217 6.500 M 9 84 L 9 159 32.500 159 L 56 159 56 152 L 56 145 50.035 145 C 45.161 145, 43.881 144.646, 43.035 143.066 C 40.590 138.497, 43.254 136, 50.571 136 L 56 136 56 131 L 56 126 49.979 126 C 44.529 126, 43.849 125.763, 42.820 123.504 C 40.983 119.472, 43.961 117, 50.655 117 L 56 117 56 112.500 L 56 108 46.071 108 C 35.666 108, 33 107.007, 33 103.129 C 33 99.692, 35.128 99, 45.700 99 L 56 99 56 94 L 56 89 50.571 89 C 43.254 89, 40.590 86.503, 43.035 81.934 C 43.881 80.354, 45.161 80, 50.035 80 L 56 80 56 75 L 56 70 50.035 70 C 45.161 70, 43.881 69.646, 43.035 68.066 C 40.590 63.497, 43.254 61, 50.571 61 L 56 61 56 56 L 56 51 45.700 51 C 35.128 51, 33 50.308, 33 46.871 C 33 42.993, 35.666 42, 46.071 42 L 56 42 56 37.500 L 56 33 50.655 33 C 43.961 33, 40.983 30.528, 42.820 26.496 C 43.849 24.237, 44.529 24, 49.979 24 L 56 24 56 16.500 L 56 9 32.500 9 L 9 9 9 84 M 217.409 13.376 C 216.562 15.584, 217.689 16.711, 219.217 15.183 C 220.119 14.281, 220.122 13.722, 219.233 12.833 C 218.343 11.943, 217.909 12.072, 217.409 13.376 M 217 22.500 C 217 23.325, 217.675 24, 218.500 24 C 219.325 24, 220 23.325, 220 22.500 C 220 21.675, 219.325 21, 218.500 21 C 217.675 21, 217 21.675, 217 22.500 M 217.500 29 C 217.101 29.646, 217.224 30.624, 217.774 31.174 C 218.441 31.841, 219.016 31.783, 219.500 31 C 219.899 30.354, 219.776 29.376, 219.226 28.826 C 218.559 28.159, 217.984 28.217, 217.500 29 M 217 38.500 C 217 39.325, 217.675 40, 218.500 40 C 219.325 40, 220 39.325, 220 38.500 C 220 37.675, 219.325 37, 218.500 37 C 217.675 37, 217 37.675, 217 38.500 M 217.154 46.438 C 217.345 47.355, 217.950 48.082, 218.500 48.053 C 219.984 47.974, 219.712 45.737, 218.154 45.218 C 217.313 44.938, 216.939 45.395, 217.154 46.438 M 217 54.500 C 217 55.325, 217.675 56, 218.500 56 C 219.325 56, 220 55.325, 220 54.500 C 220 53.675, 219.325 53, 218.500 53 C 217.675 53, 217 53.675, 217 54.500 M 217.177 62.553 C 217.629 64.725, 219.404 64.858, 219.810 62.750 C 220.020 61.655, 219.530 61, 218.500 61 C 217.539 61, 216.988 61.647, 217.177 62.553 M 217 71.500 C 217 72.325, 217.675 73, 218.500 73 C 219.325 73, 220 72.325, 220 71.500 C 220 70.675, 219.325 70, 218.500 70 C 217.675 70, 217 70.675, 217 71.500 M 217 79.500 C 217 80.325, 217.675 81, 218.500 81 C 219.325 81, 220 80.325, 220 79.500 C 220 78.675, 219.325 78, 218.500 78 C 217.675 78, 217 78.675, 217 79.500 M 217.639 85.694 C 216.444 86.889, 216.994 89, 218.500 89 C 219.325 89, 220 88.352, 220 87.559 C 220 85.888, 218.573 84.761, 217.639 85.694 M 217 95.500 C 217 96.325, 217.675 97, 218.500 97 C 219.325 97, 220 96.325, 220 95.500 C 220 94.675, 219.325 94, 218.500 94 C 217.675 94, 217 94.675, 217 95.500 M 217.409 103.376 C 216.562 105.584, 217.689 106.711, 219.217 105.183 C 220.119 104.281, 220.122 103.722, 219.233 102.833 C 218.343 101.943, 217.909 102.072, 217.409 103.376 M 217 111.500 C 217 112.325, 217.675 113, 218.500 113 C 219.325 113, 220 112.325, 220 111.500 C 220 110.675, 219.325 110, 218.500 110 C 217.675 110, 217 110.675, 217 111.500 M 217.500 119 C 217.101 119.646, 217.224 120.624, 217.774 121.174 C 218.441 121.841, 219.016 121.783, 219.500 121 C 219.899 120.354, 219.776 119.376, 219.226 118.826 C 218.559 118.159, 217.984 118.217, 217.500 119 M 217 128.500 C 217 129.325, 217.675 130, 218.500 130 C 219.325 130, 220 129.325, 220 128.500 C 220 127.675, 219.325 127, 218.500 127 C 217.675 127, 217 127.675, 217 128.500 M 217.154 136.438 C 217.345 137.355, 217.950 138.082, 218.500 138.053 C 219.984 137.974, 219.712 135.737, 218.154 135.218 C 217.313 134.938, 216.939 135.395, 217.154 136.438 M 217 144.500 C 217 145.325, 217.675 146, 218.500 146 C 219.325 146, 220 145.325, 220 144.500 C 220 143.675, 219.325 143, 218.500 143 C 217.675 143, 217 143.675, 217 144.500 M 217.177 152.553 C 217.629 154.725, 219.404 154.858, 219.810 152.750 C 220.020 151.655, 219.530 151, 218.500 151 C 217.539 151, 216.988 151.647, 217.177 152.553 M 9 192.500 L 9 216 32.500 216 L 56 216 56 192.500 L 56 169 32.500 169 L 9 169 9 192.500 M 65.232 192.250 L 65.500 215.500 140.750 215.756 L 216 216.013 216 192.506 L 216 169 208.500 169 L 201 169 201 175.021 C 201 180.471, 200.763 181.151, 198.504 182.180 C 194.472 184.017, 192 181.039, 192 174.345 L 192 169 187.500 169 L 183 169 183 178.929 C 183 189.334, 182.007 192, 178.129 192 C 174.692 192, 174 189.872, 174 179.300 L 174 169 169 169 L 164 169 164 174.429 C 164 181.746, 161.503 184.410, 156.934 181.965 C 155.354 181.119, 155 179.839, 155 174.965 L 155 169 150 169 L 145 169 145 174.965 C 145 179.839, 144.646 181.119, 143.066 181.965 C 138.497 184.410, 136 181.746, 136 174.429 L 136 169 131 169 L 126 169 126 179.300 C 126 190.227, 125.349 192, 121.335 192 C 117.934 192, 117 189.106, 117 178.566 L 117 169 112.500 169 L 108 169 108 174.345 C 108 181.039, 105.528 184.017, 101.496 182.180 C 99.237 181.151, 99 180.471, 99 175.021 L 99 169 94 169 L 89 169 89 174.429 C 89 181.746, 86.503 184.410, 81.934 181.965 C 80.354 181.119, 80 179.839, 80 174.965 L 80 169 72.482 169 L 64.963 169 65.232 192.250 M 0 223.333 C 0 224.260, 0.777 224.993, 1.750 224.985 C 2.749 224.976, 3.071 224.649, 2.500 224.223 C 1.950 223.813, 1.163 223.069, 0.750 222.572 C 0.337 222.074, 0 222.417, 0 223.333 M 223.211 223.538 C 222.145 224.746, 222.189 225, 223.461 225 C 224.307 225, 225 224.325, 225 223.500 C 225 221.676, 224.850 221.680, 223.211 223.538" stroke="none" fill="#ffffff" fill-rule="evenodd"/><path d="M 1.571 1.571 C 0.162 2.981, -0 14.418, -0 112.500 C -0 210.582, 0.162 222.019, 1.571 223.429 C 2.981 224.838, 14.421 225, 112.532 225 L 221.922 225 223.961 222.811 C 225.990 220.633, 225.999 220.107, 225.756 111.061 C 225.531 10.198, 225.491 7.866, 225.250 81.688 L 224.988 161.875 222.244 160.444 C 219.933 159.238, 207.319 159.011, 142.250 159.006 L 65 159 65 80.700 C 65 21.133, 64.713 2.113, 63.800 1.200 C 62.920 0.320, 54.660 0, 32.871 0 C 7.179 0, 2.930 0.213, 1.571 1.571 M 0.483 112.500 C 0.483 173, 0.603 197.603, 0.750 167.173 C 0.897 136.743, 0.897 87.243, 0.750 57.173 C 0.603 27.103, 0.483 52, 0.483 112.500 M 70 4.500 C 70 5.325, 70.675 6, 71.500 6 C 72.325 6, 73 5.325, 73 4.500 C 73 3.675, 72.325 3, 71.500 3 C 70.675 3, 70 3.675, 70 4.500 M 78 5.500 C 78 6.325, 78.675 7, 79.500 7 C 80.325 7, 81 6.325, 81 5.500 C 81 4.675, 80.325 4, 79.500 4 C 78.675 4, 78 4.675, 78 5.500 M 86.694 4.639 C 85.761 5.573, 86.888 7, 88.559 7 C 89.352 7, 90 6.325, 90 5.500 C 90 3.994, 87.889 3.444, 86.694 4.639 M 94 5.500 C 94 6.325, 94.885 7, 95.969 7 C 97.308 7, 97.753 6.520, 97.362 5.500 C 97.045 4.675, 96.159 4, 95.393 4 C 94.627 4, 94 4.675, 94 5.500 M 102.496 5.007 C 102.153 5.561, 102.596 6.292, 103.480 6.631 C 105.394 7.365, 106.461 6.556, 105.541 5.067 C 104.711 3.723, 103.306 3.696, 102.496 5.007 M 111 5.500 C 111 6.325, 111.675 7, 112.500 7 C 113.325 7, 114 6.325, 114 5.500 C 114 4.675, 113.325 4, 112.500 4 C 111.675 4, 111 4.675, 111 5.500 M 119.459 5.067 C 118.539 6.556, 119.606 7.365, 121.520 6.631 C 122.404 6.292, 122.847 5.561, 122.504 5.007 C 121.694 3.696, 120.289 3.723, 119.459 5.067 M 127 5.500 C 127 6.325, 127.675 7, 128.500 7 C 129.325 7, 130 6.325, 130 5.500 C 130 4.675, 129.325 4, 128.500 4 C 127.675 4, 127 4.675, 127 5.500 M 135.459 5.067 C 134.539 6.556, 135.606 7.365, 137.520 6.631 C 138.404 6.292, 138.847 5.561, 138.504 5.007 C 137.694 3.696, 136.289 3.723, 135.459 5.067 M 144 5.500 C 144 6.325, 144.675 7, 145.500 7 C 146.325 7, 147 6.325, 147 5.500 C 147 4.675, 146.325 4, 145.500 4 C 144.675 4, 144 4.675, 144 5.500 M 152 5.500 C 152 6.325, 152.675 7, 153.500 7 C 154.325 7, 155 6.325, 155 5.500 C 155 4.675, 154.325 4, 153.500 4 C 152.675 4, 152 4.675, 152 5.500 M 160 5.417 C 160 6.287, 160.713 7, 161.583 7 C 163.349 7, 163.042 4.847, 161.188 4.229 C 160.534 4.011, 160 4.546, 160 5.417 M 168 5.500 C 168 6.325, 168.675 7, 169.500 7 C 170.325 7, 171 6.325, 171 5.500 C 171 4.675, 170.325 4, 169.500 4 C 168.675 4, 168 4.675, 168 5.500 M 176.496 6.007 C 176.153 6.561, 176.596 7.292, 177.480 7.631 C 179.394 8.365, 180.461 7.556, 179.541 6.067 C 178.711 4.723, 177.306 4.696, 176.496 6.007 M 185 6.500 C 185 7.325, 185.675 8, 186.500 8 C 187.325 8, 188 7.325, 188 6.500 C 188 5.675, 187.325 5, 186.500 5 C 185.675 5, 185 5.675, 185 6.500 M 192.543 5.931 C 191.803 7.128, 193.684 8.313, 195.016 7.490 C 196.135 6.799, 195.400 5, 194 5 C 193.515 5, 192.859 5.419, 192.543 5.931 M 201 6.500 C 201 7.325, 201.675 8, 202.500 8 C 203.325 8, 204 7.325, 204 6.500 C 204 5.675, 203.325 5, 202.500 5 C 201.675 5, 201 5.675, 201 6.500 M 208.496 6.007 C 208.153 6.561, 208.596 7.292, 209.480 7.631 C 211.394 8.365, 212.461 7.556, 211.541 6.067 C 210.711 4.723, 209.306 4.696, 208.496 6.007 M 217 6.500 C 217 7.325, 217.675 8, 218.500 8 C 219.325 8, 220 7.325, 220 6.500 C 220 5.675, 219.325 5, 218.500 5 C 217.675 5, 217 5.675, 217 6.500 M 9 84 L 9 159 32.500 159 L 56 159 56 152 L 56 145 50.035 145 C 45.161 145, 43.881 144.646, 43.035 143.066 C 40.590 138.497, 43.254 136, 50.571 136 L 56 136 56 131 L 56 126 49.979 126 C 44.529 126, 43.849 125.763, 42.820 123.504 C 40.983 119.472, 43.961 117, 50.655 117 L 56 117 56 112.500 L 56 108 46.071 108 C 35.666 108, 33 107.007, 33 103.129 C 33 99.692, 35.128 99, 45.700 99 L 56 99 56 94 L 56 89 50.571 89 C 43.254 89, 40.590 86.503, 43.035 81.934 C 43.881 80.354, 45.161 80, 50.035 80 L 56 80 56 75 L 56 70 50.035 70 C 45.161 70, 43.881 69.646, 43.035 68.066 C 40.590 63.497, 43.254 61, 50.571 61 L 56 61 56 56 L 56 51 45.700 51 C 35.128 51, 33 50.308, 33 46.871 C 33 42.993, 35.666 42, 46.071 42 L 56 42 56 37.500 L 56 33 50.655 33 C 43.961 33, 40.983 30.528, 42.820 26.496 C 43.849 24.237, 44.529 24, 49.979 24 L 56 24 56 16.500 L 56 9 32.500 9 L 9 9 9 84 M 217.409 13.376 C 216.562 15.584, 217.689 16.711, 219.217 15.183 C 220.119 14.281, 220.122 13.722, 219.233 12.833 C 218.343 11.943, 217.909 12.072, 217.409 13.376 M 217 22.500 C 217 23.325, 217.675 24, 218.500 24 C 219.325 24, 220 23.325, 220 22.500 C 220 21.675, 219.325 21, 218.500 21 C 217.675 21, 217 21.675, 217 22.500 M 217.500 29 C 217.101 29.646, 217.224 30.624, 217.774 31.174 C 218.441 31.841, 219.016 31.783, 219.500 31 C 219.899 30.354, 219.776 29.376, 219.226 28.826 C 218.559 28.159, 217.984 28.217, 217.500 29 M 217 38.500 C 217 39.325, 217.675 40, 218.500 40 C 219.325 40, 220 39.325, 220 38.500 C 220 37.675, 219.325 37, 218.500 37 C 217.675 37, 217 37.675, 217 38.500 M 217.154 46.438 C 217.345 47.355, 217.950 48.082, 218.500 48.053 C 219.984 47.974, 219.712 45.737, 218.154 45.218 C 217.313 44.938, 216.939 45.395, 217.154 46.438 M 217 54.500 C 217 55.325, 217.675 56, 218.500 56 C 219.325 56, 220 55.325, 220 54.500 C 220 53.675, 219.325 53, 218.500 53 C 217.675 53, 217 53.675, 217 54.500 M 217.177 62.553 C 217.629 64.725, 219.404 64.858, 219.810 62.750 C 220.020 61.655, 219.530 61, 218.500 61 C 217.539 61, 216.988 61.647, 217.177 62.553 M 217 71.500 C 217 72.325, 217.675 73, 218.500 73 C 219.325 73, 220 72.325, 220 71.500 C 220 70.675, 219.325 70, 218.500 70 C 217.675 70, 217 70.675, 217 71.500 M 217 79.500 C 217 80.325, 217.675 81, 218.500 81 C 219.325 81, 220 80.325, 220 79.500 C 220 78.675, 219.325 78, 218.500 78 C 217.675 78, 217 78.675, 217 79.500 M 217.639 85.694 C 216.444 86.889, 216.994 89, 218.500 89 C 219.325 89, 220 88.352, 220 87.559 C 220 85.888, 218.573 84.761, 217.639 85.694 M 217 95.500 C 217 96.325, 217.675 97, 218.500 97 C 219.325 97, 220 96.325, 220 95.500 C 220 94.675, 219.325 94, 218.500 94 C 217.675 94, 217 94.675, 217 95.500 M 217.409 103.376 C 216.562 105.584, 217.689 106.711, 219.217 105.183 C 220.119 104.281, 220.122 103.722, 219.233 102.833 C 218.343 101.943, 217.909 102.072, 217.409 103.376 M 217 111.500 C 217 112.325, 217.675 113, 218.500 113 C 219.325 113, 220 112.325, 220 111.500 C 220 110.675, 219.325 110, 218.500 110 C 217.675 110, 217 110.675, 217 111.500 M 217.500 119 C 217.101 119.646, 217.224 120.624, 217.774 121.174 C 218.441 121.841, 219.016 121.783, 219.500 121 C 219.899 120.354, 219.776 119.376, 219.226 118.826 C 218.559 118.159, 217.984 118.217, 217.500 119 M 217 128.500 C 217 129.325, 217.675 130, 218.500 130 C 219.325 130, 220 129.325, 220 128.500 C 220 127.675, 219.325 127, 218.500 127 C 217.675 127, 217 127.675, 217 128.500 M 217.154 136.438 C 217.345 137.355, 217.950 138.082, 218.500 138.053 C 219.984 137.974, 219.712 135.737, 218.154 135.218 C 217.313 134.938, 216.939 135.395, 217.154 136.438 M 217 144.500 C 217 145.325, 217.675 146, 218.500 146 C 219.325 146, 220 145.325, 220 144.500 C 220 143.675, 219.325 143, 218.500 143 C 217.675 143, 217 143.675, 217 144.500 M 217.177 152.553 C 217.629 154.725, 219.404 154.858, 219.810 152.750 C 220.020 151.655, 219.530 151, 218.500 151 C 217.539 151, 216.988 151.647, 217.177 152.553 M 9 192.500 L 9 216 32.500 216 L 56 216 56 192.500 L 56 169 32.500 169 L 9 169 9 192.500 M 65.232 192.250 L 65.500 215.500 140.750 215.756 L 216 216.013 216 192.506 L 216 169 208.500 169 L 201 169 201 175.021 C 201 180.471, 200.763 181.151, 198.504 182.180 C 194.472 184.017, 192 181.039, 192 174.345 L 192 169 187.500 169 L 183 169 183 178.929 C 183 189.334, 182.007 192, 178.129 192 C 174.692 192, 174 189.872, 174 179.300 L 174 169 169 169 L 164 169 164 174.429 C 164 181.746, 161.503 184.410, 156.934 181.965 C 155.354 181.119, 155 179.839, 155 174.965 L 155 169 150 169 L 145 169 145 174.965 C 145 179.839, 144.646 181.119, 143.066 181.965 C 138.497 184.410, 136 181.746, 136 174.429 L 136 169 131 169 L 126 169 126 179.300 C 126 190.227, 125.349 192, 121.335 192 C 117.934 192, 117 189.106, 117 178.566 L 117 169 112.500 169 L 108 169 108 174.345 C 108 181.039, 105.528 184.017, 101.496 182.180 C 99.237 181.151, 99 180.471, 99 175.021 L 99 169 94 169 L 89 169 89 174.429 C 89 181.746, 86.503 184.410, 81.934 181.965 C 80.354 181.119, 80 179.839, 80 174.965 L 80 169 72.482 169 L 64.963 169 65.232 192.250" stroke="none" fill="#060606" fill-rule="evenodd"/></svg>