<svg xmlns="http://www.w3.org/2000/svg" width="745" height="734" viewBox="0 0 745 734" version="1.1"><path d="M -0 367.001 L -0 734.003 372.750 733.751 L 745.500 733.500 745.751 366.750 L 746.003 -0 671.251 0.086 C 630.138 0.133, 597.625 0.515, 599 0.935 C 606.359 3.182, 612.799 9.165, 674.608 71.177 C 726.073 122.813, 740.216 137.548, 742.108 141.500 L 744.500 146.500 744.500 422.500 L 744.500 698.500 742.188 704.225 C 736.954 717.182, 726.341 727.236, 713.765 731.150 C 708.032 732.934, 695.969 733, 373.161 732.989 C 7.910 732.977, 35.044 733.414, 23.929 727.365 C 13.925 721.920, 4.649 709.088, 2.125 697.201 C 1.304 693.335, 1 601.830, 1 358.986 C 1 54.369, 1.138 25.663, 2.624 21.285 C 5.951 11.483, 12.996 4.348, 22.173 1.484 C 26.302 0.196, 25.892 0.131, 13.250 0.067 L 0 0 -0 367.001 M 0.495 367.500 C 0.495 569.350, 0.610 651.776, 0.750 550.669 C 0.890 449.561, 0.890 284.411, 0.750 183.669 C 0.610 82.926, 0.495 165.650, 0.495 367.500 M 162.226 104.750 L 162.500 180.500 165.330 186.265 C 169.267 194.287, 176.525 201.407, 184.725 205.291 L 191.500 208.500 349.521 208.500 L 507.542 208.500 514.032 205.305 C 521.985 201.390, 529.170 194.388, 532.782 187.033 L 535.500 181.500 535.768 105.250 L 536.037 29 348.994 29 L 161.951 29 162.226 104.750 M 431.481 54.394 C 427.919 55.946, 422.260 62.098, 421.479 65.268 C 421.177 66.496, 421.058 91.575, 421.215 121 L 421.500 174.500 423.834 177.773 C 425.118 179.573, 427.952 181.955, 430.133 183.068 C 433.871 184.975, 435.647 185.073, 461.378 184.795 L 488.660 184.500 492.189 181.806 C 499.185 176.467, 499 178.156, 499 119.567 C 499 77.101, 498.734 66.314, 497.623 63.718 C 495.958 59.826, 491.516 55.511, 487.685 54.064 C 483.379 52.437, 435.325 52.719, 431.481 54.394 M 150 299.098 C 142.929 300.479, 132.952 305.916, 127.818 311.186 C 125.235 313.839, 121.631 319.035, 119.810 322.734 L 116.500 329.458 116.500 501.479 L 116.500 673.500 118.905 679.500 C 120.691 683.956, 123.135 687.325, 128.405 692.595 C 137.993 702.182, 143.074 704.167, 160 704.934 C 166.875 705.245, 267.685 705.456, 384.022 705.403 C 551.491 705.326, 596.372 705.042, 599.522 704.042 C 612.652 699.871, 623.564 689.168, 627.944 676.165 C 630.021 670.002, 630.022 669.829, 629.761 499.748 L 629.500 329.500 626.291 322.726 C 620.535 310.574, 609.495 301.911, 596.201 299.115 C 589.697 297.747, 157.002 297.730, 150 299.098 M 176.593 338.470 C 169.442 341.417, 164.703 345.099, 159.841 351.487 C 152.499 361.132, 152.945 350.857, 153.238 503.500 L 153.500 640.500 156.188 646.236 C 159.623 653.564, 167.436 661.377, 174.764 664.812 L 180.500 667.500 370.961 667.760 C 546.420 668, 561.819 667.889, 566.461 666.355 C 578.653 662.325, 587.565 653.425, 591.411 641.439 C 592.882 636.854, 593.010 623.566, 592.767 499.939 L 592.500 363.500 589.652 357.699 C 586.017 350.298, 578.695 342.975, 571.297 339.345 L 565.500 336.500 374 336.268 L 182.500 336.037 176.593 338.470 M 458.108 385.025 C 455.693 385.531, 450.887 387.268, 447.429 388.887 C 417.801 402.751, 413.064 443.323, 438.720 463.460 C 447.411 470.281, 454.352 472.500, 467 472.500 C 477.005 472.500, 477.854 472.330, 485 468.895 C 510.981 456.406, 518.672 425.433, 501.561 402.191 C 492.003 389.207, 473.348 381.838, 458.108 385.025 M 312.764 438.943 C 305.727 441.198, 302.152 445.212, 266.087 491.348 C 245.816 517.282, 219.507 550.875, 207.624 566 C 195.740 581.125, 185.001 595.525, 183.759 598 C 181.919 601.665, 181.436 604.533, 181.156 613.464 C 180.954 619.907, 181.287 626.015, 181.965 628.276 C 183.539 633.532, 189.477 639.836, 195.500 642.647 L 200.500 644.980 371.072 644.990 C 564.569 645.001, 547.345 645.786, 556.589 636.542 C 565.601 627.530, 567.286 616.626, 561.394 605.461 C 559.802 602.444, 545.341 584.305, 529.258 565.151 C 497.648 527.508, 494.952 525, 486.083 525 C 477.624 525, 475.075 527.084, 453.044 552 C 447.452 558.325, 441.756 564.089, 440.388 564.808 C 435.598 567.327, 432.555 564.356, 405.759 531 C 391.841 513.675, 373.535 490.950, 365.080 480.500 C 356.626 470.050, 346.371 457.364, 342.293 452.310 C 336.878 445.599, 333.627 442.514, 330.243 440.876 C 325.215 438.441, 317.122 437.547, 312.764 438.943" stroke="none" fill="#fbfbfb" fill-rule="evenodd"/><path d="M 22.173 1.480 C 12.991 4.354, 5.951 11.485, 2.624 21.285 C 1.138 25.663, 1 54.369, 1 358.986 C 1 601.830, 1.304 693.335, 2.125 697.201 C 4.649 709.088, 13.925 721.920, 23.929 727.365 C 35.044 733.414, 7.910 732.977, 373.161 732.989 C 695.969 733, 708.032 732.934, 713.765 731.150 C 726.341 727.236, 736.954 717.182, 742.188 704.225 L 744.500 698.500 744.500 422.500 L 744.500 146.500 742.108 141.500 C 738.815 134.618, 612.099 7.242, 604.500 3.176 L 599.500 0.500 313 0.313 C 74.492 0.158, 25.775 0.353, 22.173 1.480 M 162.226 104.750 L 162.500 180.500 165.330 186.265 C 169.267 194.287, 176.525 201.407, 184.725 205.291 L 191.500 208.500 349.521 208.500 L 507.542 208.500 514.032 205.305 C 521.985 201.390, 529.170 194.388, 532.782 187.033 L 535.500 181.500 535.768 105.250 L 536.037 29 348.994 29 L 161.951 29 162.226 104.750 M 431.481 54.394 C 427.919 55.946, 422.260 62.098, 421.479 65.268 C 421.177 66.496, 421.058 91.575, 421.215 121 L 421.500 174.500 423.834 177.773 C 425.118 179.573, 427.952 181.955, 430.133 183.068 C 433.871 184.975, 435.647 185.073, 461.378 184.795 L 488.660 184.500 492.189 181.806 C 499.185 176.467, 499 178.156, 499 119.567 C 499 77.101, 498.734 66.314, 497.623 63.718 C 495.958 59.826, 491.516 55.511, 487.685 54.064 C 483.379 52.437, 435.325 52.719, 431.481 54.394 M 150 299.098 C 142.929 300.479, 132.952 305.916, 127.818 311.186 C 125.235 313.839, 121.631 319.035, 119.810 322.734 L 116.500 329.458 116.500 501.479 L 116.500 673.500 118.905 679.500 C 120.691 683.956, 123.135 687.325, 128.405 692.595 C 137.993 702.182, 143.074 704.167, 160 704.934 C 166.875 705.245, 267.685 705.456, 384.022 705.403 C 551.491 705.326, 596.372 705.042, 599.522 704.042 C 612.652 699.871, 623.564 689.168, 627.944 676.165 C 630.021 670.002, 630.022 669.829, 629.761 499.748 L 629.500 329.500 626.291 322.726 C 620.535 310.574, 609.495 301.911, 596.201 299.115 C 589.697 297.747, 157.002 297.730, 150 299.098 M 176.593 338.470 C 169.442 341.417, 164.703 345.099, 159.841 351.487 C 152.499 361.132, 152.945 350.857, 153.238 503.500 L 153.500 640.500 156.188 646.236 C 159.623 653.564, 167.436 661.377, 174.764 664.812 L 180.500 667.500 370.961 667.760 C 546.420 668, 561.819 667.889, 566.461 666.355 C 578.653 662.325, 587.565 653.425, 591.411 641.439 C 592.882 636.854, 593.010 623.566, 592.767 499.939 L 592.500 363.500 589.652 357.699 C 586.017 350.298, 578.695 342.975, 571.297 339.345 L 565.500 336.500 374 336.268 L 182.500 336.037 176.593 338.470 M 458.108 385.025 C 455.693 385.531, 450.887 387.268, 447.429 388.887 C 417.801 402.751, 413.064 443.323, 438.720 463.460 C 447.411 470.281, 454.352 472.500, 467 472.500 C 477.005 472.500, 477.854 472.330, 485 468.895 C 510.981 456.406, 518.672 425.433, 501.561 402.191 C 492.003 389.207, 473.348 381.838, 458.108 385.025 M 312.764 438.943 C 305.727 441.198, 302.152 445.212, 266.087 491.348 C 245.816 517.282, 219.507 550.875, 207.624 566 C 195.740 581.125, 185.001 595.525, 183.759 598 C 181.919 601.665, 181.436 604.533, 181.156 613.464 C 180.954 619.907, 181.287 626.015, 181.965 628.276 C 183.539 633.532, 189.477 639.836, 195.500 642.647 L 200.500 644.980 371.072 644.990 C 564.569 645.001, 547.345 645.786, 556.589 636.542 C 565.601 627.530, 567.286 616.626, 561.394 605.461 C 559.802 602.444, 545.341 584.305, 529.258 565.151 C 497.648 527.508, 494.952 525, 486.083 525 C 477.624 525, 475.075 527.084, 453.044 552 C 447.452 558.325, 441.756 564.089, 440.388 564.808 C 435.598 567.327, 432.555 564.356, 405.759 531 C 391.841 513.675, 373.535 490.950, 365.080 480.500 C 356.626 470.050, 346.371 457.364, 342.293 452.310 C 336.878 445.599, 333.627 442.514, 330.243 440.876 C 325.215 438.441, 317.122 437.547, 312.764 438.943" stroke="none" fill="#000000" fill-rule="evenodd"/></svg>