<svg xmlns="http://www.w3.org/2000/svg" width="1548" height="1446" viewBox="0 0 1548 1446" version="1.1"><path d="M 779.500 2.040 C 669.730 6.648, 567.371 46.349, 481 117.818 C 466.150 130.106, 431.027 165.239, 418.836 180 C 353.273 259.386, 315.502 349.589, 304.942 452 C 304.290 458.325, 303.474 475.363, 303.128 489.861 L 302.500 516.223 288.732 524.861 C 209.010 574.884, 146.550 643.961, 105.056 728 C 78.400 781.986, 62.887 836.201, 55.985 899.500 C 54.192 915.951, 53.582 962.685, 54.922 981.048 C 59.777 1047.582, 75.571 1107.018, 103.936 1165.500 C 148.606 1257.598, 221.015 1333.853, 311.594 1384.187 C 368.970 1416.071, 433.440 1436.210, 502 1443.665 C 514.521 1445.026, 526.579 1445.459, 552 1445.459 C 577.421 1445.459, 589.479 1445.026, 602 1443.665 C 649.097 1438.544, 692.834 1427.908, 735 1411.322 C 750.231 1405.331, 781.636 1390.527, 795.234 1382.929 L 800.968 1379.724 807.734 1383.429 C 822.956 1391.763, 851.502 1405.190, 867 1411.304 C 908.456 1427.661, 952.931 1438.493, 1000 1443.698 C 1021.841 1446.113, 1078.197 1446.111, 1100 1443.694 C 1163.510 1436.653, 1218.732 1420.535, 1273.529 1393.043 C 1401.132 1329.025, 1496.106 1211.701, 1531.992 1073.757 C 1538.647 1048.175, 1542.944 1024.224, 1546.030 995.500 C 1547.777 979.243, 1548.386 932.357, 1547.082 914.500 C 1542.195 847.581, 1525.856 786.609, 1497.281 728.667 C 1471.496 676.380, 1443.730 637.701, 1402.021 595.965 C 1372.497 566.421, 1347.187 546.145, 1313.268 524.861 L 1299.500 516.223 1298.850 489.361 C 1298.492 474.588, 1297.464 455.802, 1296.566 447.615 C 1285.607 347.762, 1247.727 258.196, 1183.595 180.500 C 1170.858 165.069, 1135.950 130.159, 1120.500 117.401 C 1088.022 90.582, 1058.091 71.121, 1021.500 53.032 C 946.147 15.779, 864.089 -1.511, 779.500 2.040 M 763.500 53.124 C 681.076 60.126, 600.740 90.422, 534.500 139.485 C 502.330 163.313, 468.863 196.432, 444.032 229.012 C 426.481 252.040, 412.104 275.457, 398.351 303.416 C 376.897 347.031, 363.018 393.298, 356.505 442.909 C 354.793 455.951, 352.355 490.688, 353.099 491.432 C 353.372 491.705, 360.098 489.302, 368.047 486.093 C 506.487 430.204, 661.358 439.809, 794.166 512.521 L 800.833 516.170 812.166 509.908 C 818.400 506.463, 829.575 500.763, 837 497.241 C 850.471 490.850, 884.894 476.789, 890.412 475.423 C 892.229 474.973, 936.831 437.443, 1008.912 375.711 C 1072.486 321.266, 1125.551 275.771, 1126.835 274.610 L 1129.170 272.500 1131.078 274.853 C 1135.584 280.407, 1148.809 302.389, 1156.055 316.369 C 1178.859 360.360, 1193.099 407.176, 1198.437 455.707 C 1199.297 463.521, 1200 470.548, 1200 471.322 C 1200 472.225, 1204.400 474.264, 1212.250 476.998 C 1218.987 479.345, 1229.874 483.444, 1236.443 486.107 C 1243.011 488.769, 1248.597 490.737, 1248.855 490.478 C 1249.113 490.220, 1248.773 481.620, 1248.098 471.367 C 1241.746 374.846, 1206.705 287.237, 1144.233 211.684 C 1133.659 198.896, 1106.745 171.736, 1093 159.982 C 1053.714 126.389, 1012.336 101.401, 965 82.684 C 924.409 66.633, 882.003 56.847, 836.500 53.028 C 822.412 51.845, 777.862 51.904, 763.500 53.124 M 525.242 490.999 C 470.399 493.912, 415.776 507.671, 366.389 531.014 L 353.696 537.013 354.340 548.256 C 358.707 624.445, 389.789 706.956, 438.814 772.500 C 458.708 799.098, 487.254 829.209, 511.812 849.501 C 524.367 859.875, 554.440 882, 555.986 882 C 556.377 882, 557.244 878.063, 557.914 873.250 C 560.085 857.636, 566.815 825.833, 570.876 812 C 592.132 739.597, 625.051 678.906, 673.942 621.981 C 693.937 598.700, 728.405 566.805, 753.352 548.498 L 760.163 543.500 745.332 536.236 C 678.057 503.285, 599.177 487.073, 525.242 490.999 M 1025 491.010 C 966.727 495.047, 911.502 509.836, 855.723 536.340 C 848.176 539.926, 842 543.059, 842 543.300 C 842 543.542, 846.837 547.356, 852.750 551.777 C 886.292 576.854, 923.187 613.886, 950.111 649.500 C 981.831 691.457, 1007.515 740.442, 1024.305 791 C 1032.817 816.631, 1040.408 848.455, 1044.044 873.750 C 1044.696 878.288, 1045.660 882, 1046.185 882 C 1046.710 882, 1051.271 879.119, 1056.320 875.597 C 1130.746 823.688, 1187.178 753.629, 1218.932 673.721 C 1233.708 636.536, 1243.857 594.971, 1246.942 559 C 1247.532 552.125, 1248.207 544.425, 1248.443 541.890 L 1248.873 537.280 1235.186 530.681 C 1193.454 510.559, 1147.912 497.825, 1098.500 492.464 C 1081.424 490.611, 1042.008 489.831, 1025 491.010 M 790.003 575.141 C 696.932 634.371, 631.486 731.548, 611.628 840 C 608.460 857.305, 606.207 875.458, 605.422 890 L 604.802 901.500 617.151 908.145 C 657.208 929.701, 699.835 944.145, 743.500 950.959 C 780.511 956.735, 826.980 956.329, 865 949.898 C 904.064 943.290, 948.159 928.032, 983.614 908.854 L 997.210 901.500 996.559 890 C 990.306 779.613, 937.753 675.759, 852 604.326 C 835.253 590.375, 804.091 568.921, 800.761 569.048 C 800.067 569.075, 795.226 571.817, 790.003 575.141 M 1291.460 575.750 C 1288.604 596.238, 1280.648 629.652, 1272.925 653.600 C 1259.437 695.420, 1237.548 740.551, 1213.077 777 C 1173.571 835.842, 1121.740 885.938, 1062.250 922.778 L 1050 930.364 1049.995 944.932 C 1049.990 962.174, 1048.511 987.402, 1046.444 1005.500 C 1031.470 1136.646, 962.884 1258.363, 857.834 1340.218 L 847.929 1347.935 853.854 1350.926 C 857.112 1352.571, 866.015 1356.584, 873.639 1359.844 C 974.946 1403.162, 1088.586 1407.631, 1193.610 1372.426 C 1306.141 1334.704, 1402.207 1249.736, 1453.568 1142.500 C 1476.156 1095.339, 1489.450 1048.960, 1495.560 996 C 1498.996 966.217, 1498.521 922.718, 1494.408 890.500 C 1483.200 802.708, 1445.422 719.096, 1386.757 652.237 C 1373.141 636.719, 1346.765 611.490, 1331 598.905 C 1317.370 588.024, 1294.011 571, 1292.711 571 C 1292.387 571, 1291.825 573.138, 1291.460 575.750 M 300.500 577.166 C 258.101 606.215, 217.869 645.306, 189.169 685.341 C 116.987 786.031, 89.696 906.995, 111.635 1029 C 132.867 1147.078, 203.238 1253.725, 304 1320.530 C 366.670 1362.080, 431.967 1385.367, 509 1393.640 C 530.064 1395.903, 573.701 1395.891, 595.500 1393.618 C 647.317 1388.215, 697.673 1374.460, 740.870 1353.908 L 753.241 1348.022 740.870 1338.151 C 734.067 1332.721, 725.125 1325.302, 721 1321.663 C 716.875 1318.024, 713.036 1315.036, 712.470 1315.023 C 711.903 1315.010, 707.629 1316.607, 702.973 1318.571 C 673.420 1331.035, 634.095 1340.989, 596 1345.650 C 575.799 1348.122, 529.563 1348.117, 508.500 1345.641 C 428.234 1336.206, 354.366 1304.392, 295.094 1253.727 C 290.092 1249.452, 286 1245.568, 286 1245.097 C 286 1244.625, 346.740 1192.215, 420.977 1128.630 C 547.845 1019.968, 555.925 1012.856, 555.471 1010.261 C 553.856 1001.023, 552.797 984.031, 552.300 959.349 L 551.733 931.198 539.616 923.705 C 455.084 871.421, 386.185 792.380, 345.926 701.500 C 330.043 665.647, 316.931 623.021, 310.726 587.068 C 309.451 579.680, 307.978 573.505, 307.454 573.346 C 306.929 573.186, 303.800 574.905, 300.500 577.166 M 1267.369 1143.279 C 1167.747 1254.501, 1086.297 1345.567, 1086.369 1345.649 C 1086.441 1345.731, 1093.250 1344.941, 1101.500 1343.894 C 1189.258 1332.752, 1269.751 1293.236, 1332.493 1230.493 C 1394.764 1168.222, 1434.275 1088.219, 1446.079 1000.500 C 1447.850 987.337, 1450.046 940.944, 1448.894 941.029 C 1448.677 941.045, 1366.991 1032.057, 1267.369 1143.279 M 603.385 969.750 C 609.987 1101.424, 670.264 1220.925, 768.849 1297.781 C 781.482 1307.631, 799.381 1320, 801 1320 C 802.619 1320, 820.518 1307.631, 833.151 1297.781 C 925.239 1225.990, 985.002 1114.965, 996.943 993.500 C 998.235 980.356, 999.441 956, 998.800 956 C 998.522 956, 993.616 957.958, 987.898 960.351 C 946.162 977.815, 898.878 989.593, 848 995.198 C 829.993 997.182, 769.264 996.872, 750.200 994.700 C 702.057 989.213, 654.111 977.076, 613.634 960.131 C 608.207 957.859, 603.526 956, 603.232 956 C 602.937 956, 603.006 962.188, 603.385 969.750" stroke="none" fill="#2c2c2c" fill-rule="evenodd"/><path d="M 763.500 53.124 C 681.076 60.126, 600.740 90.422, 534.500 139.485 C 502.330 163.313, 468.863 196.432, 444.032 229.012 C 426.481 252.040, 412.104 275.457, 398.351 303.416 C 376.897 347.031, 363.018 393.298, 356.505 442.909 C 354.793 455.951, 352.355 490.688, 353.099 491.432 C 353.372 491.705, 360.098 489.302, 368.047 486.093 C 506.487 430.204, 661.358 439.809, 794.166 512.521 L 800.833 516.170 812.166 509.908 C 818.400 506.463, 829.575 500.763, 837 497.241 C 850.471 490.850, 884.894 476.789, 890.412 475.423 C 892.229 474.973, 936.831 437.443, 1008.912 375.711 C 1072.486 321.266, 1125.551 275.771, 1126.835 274.610 L 1129.170 272.500 1131.078 274.853 C 1135.584 280.407, 1148.809 302.389, 1156.055 316.369 C 1178.859 360.360, 1193.099 407.176, 1198.437 455.707 C 1199.297 463.521, 1200 470.548, 1200 471.322 C 1200 472.225, 1204.400 474.264, 1212.250 476.998 C 1218.987 479.345, 1229.874 483.444, 1236.443 486.107 C 1243.011 488.769, 1248.597 490.737, 1248.855 490.478 C 1249.113 490.220, 1248.773 481.620, 1248.098 471.367 C 1241.746 374.846, 1206.705 287.237, 1144.233 211.684 C 1133.659 198.896, 1106.745 171.736, 1093 159.982 C 1053.714 126.389, 1012.336 101.401, 965 82.684 C 924.409 66.633, 882.003 56.847, 836.500 53.028 C 822.412 51.845, 777.862 51.904, 763.500 53.124 M 525.242 490.999 C 470.399 493.912, 415.776 507.671, 366.389 531.014 L 353.696 537.013 354.340 548.256 C 358.707 624.445, 389.789 706.956, 438.814 772.500 C 458.708 799.098, 487.254 829.209, 511.812 849.501 C 524.367 859.875, 554.440 882, 555.986 882 C 556.377 882, 557.244 878.063, 557.914 873.250 C 560.085 857.636, 566.815 825.833, 570.876 812 C 592.132 739.597, 625.051 678.906, 673.942 621.981 C 693.937 598.700, 728.405 566.805, 753.352 548.498 L 760.163 543.500 745.332 536.236 C 678.057 503.285, 599.177 487.073, 525.242 490.999 M 1025 491.010 C 966.727 495.047, 911.502 509.836, 855.723 536.340 C 848.176 539.926, 842 543.059, 842 543.300 C 842 543.542, 846.837 547.356, 852.750 551.777 C 886.292 576.854, 923.187 613.886, 950.111 649.500 C 981.831 691.457, 1007.515 740.442, 1024.305 791 C 1032.817 816.631, 1040.408 848.455, 1044.044 873.750 C 1044.696 878.288, 1045.660 882, 1046.185 882 C 1046.710 882, 1051.271 879.119, 1056.320 875.597 C 1130.746 823.688, 1187.178 753.629, 1218.932 673.721 C 1233.708 636.536, 1243.857 594.971, 1246.942 559 C 1247.532 552.125, 1248.207 544.425, 1248.443 541.890 L 1248.873 537.280 1235.186 530.681 C 1193.454 510.559, 1147.912 497.825, 1098.500 492.464 C 1081.424 490.611, 1042.008 489.831, 1025 491.010 M 790.003 575.141 C 696.932 634.371, 631.486 731.548, 611.628 840 C 608.460 857.305, 606.207 875.458, 605.422 890 L 604.802 901.500 617.151 908.145 C 657.208 929.701, 699.835 944.145, 743.500 950.959 C 780.511 956.735, 826.980 956.329, 865 949.898 C 904.064 943.290, 948.159 928.032, 983.614 908.854 L 997.210 901.500 996.559 890 C 990.306 779.613, 937.753 675.759, 852 604.326 C 835.253 590.375, 804.091 568.921, 800.761 569.048 C 800.067 569.075, 795.226 571.817, 790.003 575.141 M 1291.460 575.750 C 1288.604 596.238, 1280.648 629.652, 1272.925 653.600 C 1259.437 695.420, 1237.548 740.551, 1213.077 777 C 1173.571 835.842, 1121.740 885.938, 1062.250 922.778 L 1050 930.364 1049.995 944.932 C 1049.990 962.174, 1048.511 987.402, 1046.444 1005.500 C 1031.470 1136.646, 962.884 1258.363, 857.834 1340.218 L 847.929 1347.935 853.854 1350.926 C 857.112 1352.571, 866.015 1356.584, 873.639 1359.844 C 974.946 1403.162, 1088.586 1407.631, 1193.610 1372.426 C 1306.141 1334.704, 1402.207 1249.736, 1453.568 1142.500 C 1476.156 1095.339, 1489.450 1048.960, 1495.560 996 C 1498.996 966.217, 1498.521 922.718, 1494.408 890.500 C 1483.200 802.708, 1445.422 719.096, 1386.757 652.237 C 1373.141 636.719, 1346.765 611.490, 1331 598.905 C 1317.370 588.024, 1294.011 571, 1292.711 571 C 1292.387 571, 1291.825 573.138, 1291.460 575.750 M 300.500 577.166 C 258.101 606.215, 217.869 645.306, 189.169 685.341 C 116.987 786.031, 89.696 906.995, 111.635 1029 C 132.867 1147.078, 203.238 1253.725, 304 1320.530 C 366.670 1362.080, 431.967 1385.367, 509 1393.640 C 530.064 1395.903, 573.701 1395.891, 595.500 1393.618 C 647.317 1388.215, 697.673 1374.460, 740.870 1353.908 L 753.241 1348.022 740.870 1338.151 C 734.067 1332.721, 725.125 1325.302, 721 1321.663 C 716.875 1318.024, 713.036 1315.036, 712.470 1315.023 C 711.903 1315.010, 707.629 1316.607, 702.973 1318.571 C 673.420 1331.035, 634.095 1340.989, 596 1345.650 C 575.799 1348.122, 529.563 1348.117, 508.500 1345.641 C 428.234 1336.206, 354.366 1304.392, 295.094 1253.727 C 290.092 1249.452, 286 1245.568, 286 1245.097 C 286 1244.625, 346.740 1192.215, 420.977 1128.630 C 547.845 1019.968, 555.925 1012.856, 555.471 1010.261 C 553.856 1001.023, 552.797 984.031, 552.300 959.349 L 551.733 931.198 539.616 923.705 C 455.084 871.421, 386.185 792.380, 345.926 701.500 C 330.043 665.647, 316.931 623.021, 310.726 587.068 C 309.451 579.680, 307.978 573.505, 307.454 573.346 C 306.929 573.186, 303.800 574.905, 300.500 577.166 M 1267.369 1143.279 C 1167.747 1254.501, 1086.297 1345.567, 1086.369 1345.649 C 1086.441 1345.731, 1093.250 1344.941, 1101.500 1343.894 C 1189.258 1332.752, 1269.751 1293.236, 1332.493 1230.493 C 1394.764 1168.222, 1434.275 1088.219, 1446.079 1000.500 C 1447.850 987.337, 1450.046 940.944, 1448.894 941.029 C 1448.677 941.045, 1366.991 1032.057, 1267.369 1143.279 M 603.385 969.750 C 609.987 1101.424, 670.264 1220.925, 768.849 1297.781 C 781.482 1307.631, 799.381 1320, 801 1320 C 802.619 1320, 820.518 1307.631, 833.151 1297.781 C 925.239 1225.990, 985.002 1114.965, 996.943 993.500 C 998.235 980.356, 999.441 956, 998.800 956 C 998.522 956, 993.616 957.958, 987.898 960.351 C 946.162 977.815, 898.878 989.593, 848 995.198 C 829.993 997.182, 769.264 996.872, 750.200 994.700 C 702.057 989.213, 654.111 977.076, 613.634 960.131 C 608.207 957.859, 603.526 956, 603.232 956 C 602.937 956, 603.006 962.188, 603.385 969.750" stroke="none" fill="#ababab" fill-rule="evenodd"/></svg>