<svg xmlns="http://www.w3.org/2000/svg" width="512" height="512" viewBox="0 0 512 512" version="1.1"><path d="" stroke="none" fill="#080404" fill-rule="evenodd"/><path d="M 37.778 25.318 C 17.031 39.168, 0.043 50.764, 0.028 51.087 C 0.013 51.410, 17.325 63.223, 38.500 77.339 L 77 103.003 77 90.001 L 77 77 178.971 77 L 280.942 77 281.221 90.001 L 281.500 103.001 320.371 77.088 L 359.242 51.174 321.533 26.022 C 300.794 12.189, 283.189 0.626, 282.413 0.328 C 281.242 -0.121, 281 1.945, 281 12.393 L 281 25 179 25 L 77 25 77 12.500 C 77 5.625, 76.662 0.030, 76.250 0.068 C 75.838 0.105, 58.525 11.467, 37.778 25.318 M 0 332.500 L 0 512 179.500 512 L 359 512 359 332.500 L 359 153 179.500 153 L 0 153 0 332.500 M 434.752 191.777 L 409.004 230.500 422.002 230.779 L 435 231.058 435 333.029 L 435 435 421.999 435 L 408.997 435 434.661 473.500 C 448.777 494.675, 460.590 511.988, 460.913 511.974 C 461.476 511.949, 511.148 437.735, 511.833 435.895 C 512.018 435.398, 506.572 435, 499.583 435 L 487 435 487 333 L 487 231 499.607 231 C 510.055 231, 512.121 230.758, 511.672 229.587 C 511.085 228.057, 461.144 152.982, 460.743 153.027 C 460.610 153.042, 448.913 170.480, 434.752 191.777 M 52 332.500 L 52 460 179.500 460 L 307 460 307 332.500 L 307 205 179.500 205 L 52 205 52 332.500" stroke="none" fill="#808080" fill-rule="evenodd"/></svg>